<svg width="41" height="40" viewBox="0 0 41 40" fill="none" xmlns="http://www.w3.org/2000/svg">
<path d="M38.2501 10.2099C36.4169 7.06902 33.9303 4.58236 30.7897 2.74938C27.6486 0.916303 24.2194 0 20.4998 0C16.7807 0 13.3504 0.916583 10.2099 2.74938C7.06902 4.58226 4.58254 7.06902 2.74938 10.2099C0.91649 13.3508 0 16.7806 0 20.4993C0 24.9662 1.30326 28.9831 3.91044 32.5508C6.51733 36.1188 9.88506 38.5877 14.0133 39.9578C14.4939 40.047 14.8496 39.9842 15.0809 39.7712C15.3123 39.5578 15.4278 39.2906 15.4278 38.9707C15.4278 38.9173 15.4233 38.437 15.4144 37.5293C15.4052 36.6216 15.4009 35.8298 15.4009 35.1541L14.787 35.2603C14.3955 35.332 13.9017 35.3624 13.3055 35.3538C12.7096 35.3455 12.091 35.283 11.4505 35.1669C10.8097 35.0518 10.2137 34.7849 9.66199 34.3667C9.11058 33.9486 8.71914 33.4012 8.48775 32.7254L8.22083 32.1112C8.04292 31.7023 7.76282 31.248 7.38016 30.75C6.9975 30.2516 6.61055 29.9138 6.2191 29.7359L6.03221 29.6021C5.90768 29.5132 5.79213 29.4059 5.68527 29.2815C5.5785 29.1571 5.49857 29.0325 5.44518 28.9078C5.39171 28.783 5.43602 28.6806 5.57859 28.6003C5.72117 28.52 5.97883 28.481 6.3527 28.481L6.88634 28.5608C7.24226 28.6321 7.68251 28.8452 8.20765 29.2013C8.7325 29.5571 9.16396 30.0197 9.50212 30.5889C9.91161 31.3187 10.405 31.8747 10.9836 32.2574C11.5617 32.6401 12.1446 32.8311 12.7318 32.8311C13.3189 32.8311 13.826 32.7866 14.2532 32.698C14.68 32.609 15.0804 32.4752 15.4543 32.2974C15.6145 31.1047 16.0505 30.1884 16.7621 29.5478C15.7479 29.4413 14.836 29.2807 14.0261 29.0673C13.2167 28.8536 12.3802 28.5067 11.5173 28.0258C10.6539 27.5456 9.93769 26.9492 9.36843 26.2377C8.79907 25.5259 8.3318 24.5913 7.96728 23.435C7.60258 22.2781 7.42017 20.9436 7.42017 19.4311C7.42017 17.2776 8.12323 15.445 9.52905 13.9323C8.8705 12.3132 8.93267 10.4982 9.71575 8.48737C10.2318 8.32704 10.9971 8.44736 12.0113 8.84759C13.0257 9.24801 13.7684 9.59103 14.2401 9.87543C14.7119 10.1597 15.0899 10.4007 15.3747 10.5961C17.0299 10.1336 18.7381 9.90226 20.4996 9.90226C22.2612 9.90226 23.9697 10.1336 25.6251 10.5961L26.6394 9.95574C27.333 9.52848 28.152 9.13695 29.0946 8.78103C30.0377 8.42529 30.7589 8.32732 31.2574 8.48765C32.0579 10.4985 32.1292 12.3135 31.4705 13.9326C32.8762 15.4452 33.5795 17.2783 33.5795 19.4314C33.5795 20.9439 33.3965 22.2826 33.0323 23.4483C32.6677 24.6142 32.1964 25.5478 31.6183 26.2511C31.0395 26.9542 30.3187 27.5459 29.4558 28.0261C28.5927 28.5066 27.7559 28.8535 26.9465 29.0672C26.1367 29.2809 25.2248 29.4415 24.2107 29.5483C25.1356 30.3488 25.5982 31.6123 25.5982 33.3383V38.9699C25.5982 39.2899 25.7095 39.557 25.9322 39.7704C26.1546 39.9835 26.5058 40.0462 26.9864 39.9569C31.1152 38.587 34.4829 36.118 37.0898 32.55C39.6963 28.9823 41 24.9655 41 20.4985C40.9991 16.7803 40.0821 13.3508 38.2501 10.2099Z" fill="white"/>
</svg>
