<svg width="107" height="40" viewBox="0 0 107 40" fill="none" xmlns="http://www.w3.org/2000/svg">
<g clip-path="url(#clip0_301:2)">
<path d="M55.242 13.2489L60.3327 12.9177C60.4488 13.7555 60.6617 14.379 61.0101 14.8271C61.5715 15.5285 62.3457 15.8792 63.3716 15.8792C64.1265 15.8792 64.7265 15.7039 65.133 15.3337C65.5201 15.0414 65.7524 14.5738 65.7524 14.0867C65.7524 13.6191 65.5395 13.171 65.1717 12.8787C64.7846 12.528 63.8748 12.1773 62.4425 11.8656C60.1004 11.3395 58.4164 10.6381 57.4293 9.74187C56.4421 8.90407 55.8808 7.6766 55.9195 6.37119C55.9195 5.47494 56.1905 4.57869 56.6938 3.83831C57.2744 3.00051 58.068 2.33807 59.0165 1.96788C60.0423 1.51975 61.4747 1.28595 63.2748 1.28595C65.4814 1.28595 67.1654 1.69511 68.3267 2.53291C69.4881 3.35122 70.1849 4.67611 70.3978 6.48809L65.3652 6.78035C65.2298 6.001 64.9588 5.43597 64.5136 5.06578C64.0684 4.69559 63.4877 4.52024 62.7328 4.52024C62.1134 4.52024 61.6489 4.65663 61.3392 4.90991C61.0489 5.14372 60.8553 5.49442 60.8746 5.8841C60.8746 6.17635 61.0295 6.44912 61.2618 6.62448C61.5134 6.85828 62.1134 7.0726 63.0619 7.26744C65.404 7.77401 67.0686 8.28059 68.0944 8.80665C69.1203 9.33271 69.8558 9.97567 70.301 10.7355C70.7656 11.5149 70.9978 12.4111 70.9785 13.3269C70.9785 14.4179 70.6688 15.509 70.0494 16.4248C69.4106 17.3795 68.5203 18.1198 67.475 18.568C66.3718 19.0551 64.9781 19.3084 63.3135 19.3084C60.3714 19.3084 58.339 18.7433 57.197 17.5938C56.055 16.4443 55.3775 15.0025 55.242 13.2489ZM1.21943 19.0161V1.59769H10.1425C11.7878 1.59769 13.0653 1.73407 13.9363 2.02633C14.788 2.2991 15.5429 2.86413 16.0461 3.62399C16.6075 4.46179 16.8784 5.43597 16.8591 6.44912C16.9172 8.16369 16.0461 9.80032 14.5557 10.6576C13.975 10.9888 13.3363 11.2226 12.6782 11.3395C13.1621 11.4759 13.646 11.7097 14.0718 11.9825C14.4009 12.2553 14.6719 12.567 14.9235 12.8982C15.2138 13.2294 15.4655 13.5996 15.6784 13.9893L18.2721 19.0356H12.1943L9.3296 13.6776C8.96183 12.9956 8.65214 12.5475 8.3618 12.3332C7.97468 12.0604 7.51013 11.924 7.04559 11.924H6.58104V18.9966H1.21943V19.0161ZM6.58104 8.65078H8.8457C9.3296 8.61181 9.79414 8.53388 10.2587 8.41698C10.6071 8.35853 10.9168 8.16369 11.1297 7.87143C11.6523 7.17002 11.5749 6.17635 10.9361 5.57236C10.5877 5.2801 9.91028 5.12423 8.94248 5.12423H6.58104V8.65078ZM0 33.9406L5.09063 33.6094C5.20677 34.4472 5.41968 35.0706 5.76809 35.5188C6.31006 36.2202 7.10366 36.5904 8.12952 36.5904C8.88441 36.5904 9.48444 36.415 9.89092 36.0448C10.278 35.7331 10.5103 35.285 10.5103 34.7979C10.5103 34.3303 10.2974 33.8821 9.92963 33.5899C9.54251 33.2392 8.63278 32.8885 7.18108 32.5767C4.839 32.0507 3.15503 31.3493 2.16787 30.453C1.18072 29.6152 0.619392 28.3877 0.658104 27.0823C0.658104 26.1861 0.929088 25.2898 1.43234 24.5495C2.01302 23.7117 2.80662 23.0492 3.75507 22.679C4.78093 22.2309 6.21328 21.9971 8.01339 21.9971C10.22 21.9971 11.9039 22.4063 13.0653 23.2441C14.2267 24.0819 14.9041 25.3873 15.117 27.1992L10.0845 27.4915C9.94899 26.7121 9.678 26.1471 9.23282 25.7769C8.80698 25.4067 8.20695 25.2314 7.45206 25.2509C6.83267 25.2509 6.36813 25.3873 6.05843 25.66C5.74873 25.8938 5.57453 26.2445 5.59389 26.6342C5.59389 26.9265 5.74873 27.1992 5.98101 27.3746C6.23263 27.6084 6.83267 27.8227 7.78112 28.0176C10.1232 28.5241 11.7878 29.0307 12.8137 29.5568C13.8395 30.0828 14.5751 30.7258 15.0203 31.4857C15.4848 32.265 15.7171 33.1612 15.7171 34.0575C15.7171 35.1486 15.388 36.2202 14.788 37.1359C14.1492 38.0906 13.2589 38.831 12.2136 39.2791C11.1103 39.7662 9.71672 40.0195 8.0521 40.0195C5.10999 40.0195 3.07761 39.4545 1.9356 38.3049C0.793596 37.1359 0.154848 35.6941 0 33.9406H0Z" fill="white"/>
<path d="M25.7435 32.5767L30.4276 33.999C30.176 35.1875 29.6534 36.3176 28.9372 37.3112C28.2791 38.188 27.4081 38.8699 26.4209 39.3181C25.4144 39.7662 24.1369 40 22.5884 40C20.7109 40 19.1624 39.7272 17.9817 39.1817C16.7816 38.6361 15.7558 37.6619 14.8847 36.2786C14.0137 34.8953 13.5879 33.1223 13.5879 30.9596C13.5879 28.076 14.3428 25.8548 15.8719 24.3156C17.401 22.7764 19.5495 21.9971 22.3368 21.9971C24.524 21.9971 26.2274 22.4452 27.4855 23.322C28.7243 24.2182 29.6534 25.5821 30.2728 27.4135L25.5499 28.4657C25.4338 28.0565 25.2596 27.6473 25.0273 27.2966C24.737 26.8875 24.3692 26.5757 23.924 26.3419C23.4788 26.1081 22.9756 26.0107 22.4723 26.0107C21.2529 26.0107 20.3238 26.4978 19.685 27.4915C19.2011 28.2124 18.9495 29.3619 18.9495 30.9206C18.9495 32.8495 19.2398 34.1744 19.8205 34.8953C20.4012 35.6162 21.2142 35.9669 22.2787 35.9669C23.3046 35.9669 24.0789 35.6746 24.6015 35.1096C25.1241 34.5056 25.5112 33.6678 25.7435 32.5767ZM36.6796 22.2893H42.0219V28.3877H47.8674V22.2893H53.2484V39.7077H47.8674V32.6546H42.0219V39.7077H36.6796V22.2893V22.2893Z" fill="white"/>
<path d="M52.5129 30.9985C52.5129 28.1539 53.3065 25.9327 54.8744 24.3545C56.4422 22.7764 58.6488 21.9775 61.4554 21.9775C64.3395 21.9775 66.5461 22.7569 68.1139 24.3156C69.6817 25.8743 70.456 28.0564 70.456 30.8621C70.456 32.9079 70.1076 34.564 69.4301 35.8694C68.772 37.1553 67.7461 38.2074 66.488 38.9089C65.1911 39.6297 63.5846 39.9999 61.6683 39.9999C59.7134 39.9999 58.1068 39.6882 56.8293 39.0647C55.5131 38.4023 54.4292 37.3696 53.713 36.1032C52.9194 34.7393 52.5129 33.0443 52.5129 30.9985ZM57.8552 31.018C57.8552 32.7715 58.1843 34.0379 58.823 34.8173C59.4618 35.5771 60.3521 35.9668 61.4748 35.9668C62.6168 35.9668 63.5072 35.5966 64.1459 34.8368C64.7847 34.0769 65.0943 32.7325 65.0943 30.7842C65.0943 29.1475 64.7653 27.9395 64.1072 27.1992C63.4491 26.4393 62.5587 26.0691 61.4361 26.0691C60.4489 26.0301 59.5005 26.4588 58.8424 27.2186C58.1843 27.9785 57.8552 29.2449 57.8552 31.018V31.018ZM75.9337 30.9985C75.9337 28.1539 76.7273 25.9327 78.2952 24.3545C79.863 22.7764 82.0696 21.9775 84.8762 21.9775C87.7602 21.9775 89.9862 22.7569 91.5347 24.3156C93.0831 25.8743 93.8767 28.0564 93.8767 30.8621C93.8767 32.9079 93.5283 34.564 92.8509 35.8694C92.1928 37.1553 91.1669 38.2074 89.9088 38.9089C88.6119 39.6297 87.0054 39.9999 85.0891 39.9999C83.1342 39.9999 81.5276 39.6882 80.2501 39.0647C78.9339 38.4023 77.85 37.3696 77.1338 36.1032C76.3402 34.7393 75.9337 33.0443 75.9337 30.9985V30.9985ZM81.276 31.018C81.276 32.7715 81.605 34.0379 82.2438 34.8173C82.8825 35.5771 83.7729 35.9668 84.8956 35.9668C86.0376 35.9668 86.9279 35.5966 87.5667 34.8368C88.2054 34.0769 88.5151 32.7325 88.5151 30.7842C88.5151 29.1475 88.1861 27.9395 87.528 27.1992C86.8699 26.4393 85.9795 26.0691 84.8568 26.0691C83.8697 26.0301 82.9019 26.4588 82.2631 27.2186C81.605 27.9785 81.276 29.2449 81.276 31.018V31.018Z" fill="white"/>
<path d="M93.3155 22.2893H98.6578V35.4213H107V39.7077H93.2961V22.2893H93.3155Z" fill="white"/>
<path d="M87.6176 21.3644C92.9961 17.2846 94.6547 10.3685 91.3221 5.917C87.9895 1.4655 80.9277 1.16424 75.5492 5.24413C70.1707 9.32401 68.5121 16.2401 71.8447 20.6916C75.1773 25.1431 82.2391 25.4443 87.6176 21.3644Z" stroke="white" stroke-miterlimit="10"/>
<path d="M75.6821 12.0409L77.6177 10.6771L79.9985 14.0867C80.405 14.6323 80.7147 15.2168 80.9469 15.8598C81.0824 16.3468 81.0437 16.8729 80.8501 17.3405C80.5985 17.925 80.192 18.4121 79.6501 18.7628C79.0113 19.2109 78.4694 19.4642 78.0048 19.5422C77.5596 19.6201 77.0951 19.5422 76.6692 19.3473C76.2047 19.1135 75.7982 18.7823 75.4885 18.3537L77.1531 16.795C77.2886 17.0093 77.4628 17.2041 77.6564 17.36C77.7919 17.4574 77.9467 17.5159 78.1209 17.5159C78.2564 17.5159 78.3919 17.4574 78.4887 17.3795C78.6823 17.2626 78.8178 17.0288 78.7984 16.795C78.7403 16.4637 78.6048 16.1325 78.3919 15.8792L75.6821 12.0409V12.0409ZM81.4889 14.2036L83.2503 12.8008C83.4439 13.0346 83.6955 13.21 83.9665 13.3074C84.3536 13.4243 84.7601 13.3464 85.0891 13.0931C85.3214 12.9372 85.5149 12.7229 85.5924 12.4501C85.7085 12.0994 85.5149 11.7097 85.1665 11.5928C85.1085 11.5733 85.0504 11.5539 84.9923 11.5539C84.7601 11.5344 84.3536 11.6318 83.7535 11.8851C82.7664 12.2942 81.9921 12.4501 81.4115 12.3917C80.8501 12.3332 80.3275 12.0409 80.0178 11.5539C79.7856 11.2226 79.6694 10.833 79.6501 10.4433C79.6501 9.99516 79.7662 9.54704 80.0178 9.17685C80.3856 8.65079 80.8308 8.20266 81.3728 7.85196C82.1857 7.28693 82.9019 7.01416 83.5213 7.01416C84.1407 7.01416 84.7213 7.30642 85.2633 7.91041L83.5213 9.29375C83.1729 8.84563 82.5148 8.74821 82.0696 9.09891L82.0115 9.15737C81.8179 9.27427 81.6825 9.44962 81.605 9.66394C81.547 9.81981 81.5857 9.99516 81.6825 10.1315C81.7599 10.229 81.876 10.3069 82.0115 10.3069C82.1664 10.3264 82.4373 10.2485 82.8245 10.0731C83.7923 9.66394 84.5278 9.43014 85.031 9.3522C85.4569 9.27427 85.9021 9.31323 86.3085 9.48859C86.6763 9.64446 86.986 9.91723 87.1989 10.2485C87.4699 10.6381 87.6248 11.1057 87.6441 11.5928C87.6635 12.0994 87.528 12.5865 87.257 13.0151C86.9086 13.5412 86.4634 13.9893 85.9408 14.34C84.8762 15.0804 84.0052 15.3921 83.3084 15.2752C82.5535 15.1583 81.9341 14.7687 81.4889 14.2036V14.2036Z" fill="white"/>
</g>
<defs>
<clipPath id="clip0_301:2">
<rect width="107" height="40" fill="white"/>
</clipPath>
</defs>
</svg>
