<svg width="30" height="30" viewBox="0 0 30 30" fill="none" xmlns="http://www.w3.org/2000/svg">
<path d="M29.9719 11.4618C30.0287 11.2471 29.9986 11.0191 29.8884 10.8267L26.0134 4.1238C25.7813 3.72477 25.2705 3.5872 24.8708 3.8186L21.6205 5.69485C21.0224 5.26644 20.3827 4.89647 19.7082 4.5906V0.836112C19.7082 0.374314 19.3339 0 18.8714 0H11.1267C10.6642 0 10.2906 0.374314 10.2906 0.836112V4.59127C9.65913 4.87877 9.05542 5.22336 8.48544 5.62172L5.25385 3.70641C5.06285 3.59355 4.83579 3.56149 4.62076 3.61592C4.40605 3.67135 4.22106 3.80892 4.1082 3.99992L0.160042 10.6601C0.0471805 10.8504 0.0144573 11.0788 0.0695526 11.2939C0.124982 11.5086 0.262553 11.6929 0.45355 11.8057L3.68647 13.7204C3.63505 14.1561 3.61001 14.5628 3.61001 14.9542C3.61001 15.3011 3.63038 15.6611 3.67312 16.0591L0.418155 17.9397C0.225823 18.0512 0.0855803 18.2339 0.0288155 18.4476C-0.029285 18.6616 0.00143476 18.8903 0.112293 19.082L3.98566 25.7856C4.21639 26.1853 4.72861 26.3228 5.1283 26.0908L8.37925 24.2139C8.97796 24.6429 9.6184 25.0122 10.2909 25.3181V29.0726C10.2909 29.5351 10.6645 29.9087 11.127 29.9087H18.8714C19.3339 29.9087 19.7082 29.5351 19.7082 29.0726V25.3184C20.3389 25.0316 20.9426 24.6857 21.512 24.2873L24.7456 26.2026C25.1422 26.438 25.6561 26.3065 25.8915 25.9091L29.839 19.2493C29.9512 19.0583 29.9839 18.8299 29.9295 18.6155C29.8741 18.4008 29.7365 18.2165 29.5449 18.1036L26.3139 16.189C26.366 15.7502 26.3907 15.3482 26.3907 14.9552C26.3907 14.6043 26.3697 14.2396 26.3276 13.8489L29.5819 11.97C29.7736 11.8595 29.9145 11.6762 29.9719 11.4618ZM19.4784 14.9542C19.4784 17.4238 17.469 19.4333 14.9987 19.4333C12.5291 19.4333 10.5203 17.4238 10.5203 14.9542C10.5203 12.4856 12.5291 10.4764 14.9987 10.4764C17.4693 10.4764 19.4784 12.4856 19.4784 14.9542Z" fill="white"/>
</svg>
