<svg width="480" height="652" viewBox="0 0 480 652" fill="none" xmlns="http://www.w3.org/2000/svg">
<path d="M384 86.153C422.232 86.153 456.547 65.342 480 49.6V347.445C456.547 363.188 422.232 384 384 384C345.768 384 311.453 372.665 288 356.922C264.546 341.182 230.232 329.848 192 329.848C153.767 329.848 119.455 349.305 96 365.045V67.2C119.455 51.458 153.767 32 192 32C230.232 32 264.546 43.334 288 59.076C311.453 74.818 345.768 86.153 384 86.153ZM32 0C49.673 0 64 14.327 64 32V652H0V32C0 14.327 14.327 0 32 0Z" fill="white"/>
</svg>
