<svg width="100" height="100" viewBox="0 0 100 100" fill="none" xmlns="http://www.w3.org/2000/svg">
<path d="M53.4683 25.9062L52.0933 39.6641C52.0777 39.8125 52.187 39.9375 52.3199 39.9375L55.0152 39.875C55.148 39.875 55.2417 39.75 55.2261 39.6016L53.9058 25.9062C53.8824 25.6172 53.4995 25.6172 53.4683 25.9062Z" fill="url(#paint0_linear)"/>
<path d="M35.0935 33.1719L44.4451 43.3594C44.5466 43.4687 44.7107 43.4766 44.7966 43.375L46.5466 41.3203C46.6326 41.2187 46.6013 41.0625 46.4841 40.9766L35.3904 32.8437C35.1482 32.6719 34.8982 32.9531 35.0935 33.1719Z" fill="url(#paint1_linear)"/>
<path d="M29.7107 45.2734L43.1482 48.5156C43.2888 48.5469 43.4294 48.4609 43.4451 48.3281L43.7497 45.6484C43.7654 45.5234 43.656 45.4062 43.5076 45.3984L29.7732 44.8437C29.4763 44.8281 29.4216 45.2109 29.7107 45.2734Z" fill="url(#paint2_linear)"/>
<path d="M30.0079 52.3437L43.7891 53.1094C43.9375 53.1172 44.0625 53.0234 44.0547 52.914L43.9297 50.6875C43.9219 50.5781 43.7969 50.5 43.6563 50.5156L30 51.9765C29.711 52.0078 29.7188 52.3203 30.0079 52.3437Z" fill="url(#paint3_linear)"/>
<path d="M72.4059 33.1719L63.0543 43.3516C62.9527 43.461 62.7887 43.4688 62.7027 43.3672L60.9527 41.3125C60.8668 41.211 60.8981 41.0547 61.0152 40.9688L72.109 32.836C72.3512 32.6719 72.6012 32.9531 72.4059 33.1719Z" fill="url(#paint4_linear)"/>
<path d="M77.7891 45.2734L64.3516 48.5156C64.211 48.5469 64.0703 48.4609 64.0547 48.3281L63.75 45.6484C63.7344 45.5234 63.8438 45.4062 63.9922 45.3984L77.7344 44.8359C78.0157 44.8281 78.0703 45.2109 77.7891 45.2734Z" fill="url(#paint5_linear)"/>
<path d="M77.4842 52.3437L63.703 53.1094C63.5545 53.1172 63.4295 53.0234 63.4374 52.914L63.5624 50.6875C63.5702 50.5781 63.6952 50.5 63.8358 50.5156L77.4921 51.9765C77.7889 52.0078 77.7811 52.3203 77.4842 52.3437Z" fill="url(#paint6_linear)"/>
<path d="M44.2031 69.1562C42.6406 71.1875 42.6406 71.1875 42.6406 71.1875L55.1797 76.4766L67.5859 73.5625C67.5859 73.5625 63.7891 69.6328 63.5156 66.0391C63.2422 62.4453 63.5156 59.8047 63.5156 59.8047H45.0156C45.0156 59.8047 45.7578 67.125 44.2031 69.1562Z" fill="url(#paint7_linear)"/>
<path d="M67.0703 50.7266C67.0703 58.4453 61.1719 64.3906 53.8359 64.3906C46.5 64.3906 40.5 58.4453 40.5 50.7266C40.5 43.0078 46.4453 36.7422 53.7891 36.7422C61.1328 36.7422 67.0703 43 67.0703 50.7266Z" fill="url(#paint8_linear)"/>
<path d="M65.7575 53.5781C65.2106 60.1094 59.8981 64.9844 53.8512 64.9844C47.8044 64.9844 42.4997 60.1094 41.9528 53.5781C41.3512 46.3828 46.6481 39.9844 53.8591 39.9844C61.07 39.9844 66.3669 46.375 65.7575 53.5781Z" fill="#309996"/>
<path d="M48 64.3438C48 64.3438 48.6797 67.9375 47.6641 68.9531C46.6484 69.9687 46.6484 69.9687 46.6484 69.9687C46.6484 69.9687 50.7188 73.2187 52.0703 73.7656C53.4219 74.3125 61.6953 73.6953 61.6953 73.6953C61.6953 73.6953 59.3203 71.7266 59.7969 65.7656C60.2735 59.8047 59.7969 61.6328 59.7969 61.6328L48 64.3438Z" fill="url(#paint9_linear)"/>
<path d="M42.2424 57.1796C41.7033 56.8281 40.9689 57.1875 40.9611 57.8359C40.9533 58.5781 41.1799 59.5156 42.1408 60.1875C42.5314 60.4609 42.8674 60.6796 43.1564 60.8515C43.8205 61.2578 44.6252 60.5859 44.3361 59.8593C44.2346 59.6015 44.0939 59.3203 43.9142 59.0312C43.3283 58.0937 42.8205 57.5546 42.2424 57.1796Z" fill="url(#paint10_linear)"/>
<path d="M60.5312 57.1171C61.0703 56.7656 61.8047 57.125 61.8125 57.7734C61.8203 58.5156 61.5937 59.4531 60.6328 60.125C60.2422 60.3984 59.9062 60.6172 59.6172 60.789C58.9531 61.1953 58.1484 60.5234 58.4375 59.7968C58.539 59.539 58.6797 59.2578 58.8593 58.9687C59.4531 58.0312 59.9609 57.4921 60.5312 57.1171Z" fill="url(#paint11_linear)"/>
<path d="M53.8281 46.8125L45.2188 53.2969C45.2188 53.2969 45.8281 62.7891 47.1172 64.5469C48.4062 66.3125 49.4922 67.0547 49.4922 67.0547C49.4922 67.0547 51.7969 68.2344 54.0703 68.2656V68.2734C54.0859 68.2734 54.1016 68.2734 54.1172 68.2734C54.1328 68.2734 54.1484 68.2734 54.1641 68.2734V68.2656C56.4375 68.2344 58.7422 67.0547 58.7422 67.0547C58.7422 67.0547 59.8281 66.3125 61.1172 64.5469C62.4062 62.7813 63.0156 53.2969 63.0156 53.2969L53.8281 46.8125Z" fill="url(#paint12_linear)"/>
<path d="M64.6875 50.5625C63.8593 48.6407 59.5546 43.2657 53.9296 43.6485H53.914C48.2968 43.2657 43.9843 48.6407 43.1562 50.5625C42.0703 53.0938 43.0078 56.8282 43.0078 56.8282L45.7578 59.4141C45.7578 59.4141 45.6875 57.1407 45.8281 54.4063C45.9687 51.6719 51.6093 50.2032 53.0156 48.9844C53.5546 48.5157 53.8125 47.6172 53.9296 46.6875C54.039 47.6172 54.2968 48.5157 54.8437 48.9844C56.25 50.2032 61.8906 51.6719 62.0312 54.4063C62.1718 57.1407 62.4218 59.3828 62.4218 59.3828L64.8437 56.8282C64.8359 56.8282 65.7734 53.0938 64.6875 50.5625Z" fill="url(#paint13_radial)"/>
<path d="M22.0703 40.1094C23.1719 42.9219 21.336 53.2969 21.7031 60.75C22.0703 68.2032 23.1719 74.7969 24.2656 78.586C25.3672 82.375 31.3516 70.0391 31.3516 70.0391C31.3516 70.0391 32.8203 65.2735 30.9844 57.9453C29.1485 50.6172 26.8281 43.6563 27.6875 40.1094C28.5391 36.5703 29.8828 34.25 29.6406 30.336C29.3985 26.4297 27.4453 23.6172 24.5078 23.25C21.5703 22.8828 19.1328 27.5235 19.375 31.5547C19.625 35.5938 20.9688 37.2969 22.0703 40.1094Z" fill="url(#paint14_linear)"/>
<path d="M19.2733 14.4844C19.2186 14.4531 19.1639 14.4141 19.117 14.375C18.8514 14.1797 18.6248 13.9453 18.4373 13.6719C16.9998 11.6016 17.6483 8.33596 19.7264 6.9844C20.3904 6.55471 21.1483 6.30471 21.8514 5.93752C22.367 5.6719 22.9295 5.2969 23.242 4.78908C23.3358 4.63283 23.4061 4.45315 23.4529 4.28127C23.6014 3.75002 24.1873 3.43752 24.7186 3.59377C26.242 4.0469 27.6326 4.96096 28.6404 6.19533C30.3983 8.3594 31.6092 12.7891 28.742 14.6094C27.4686 15.4141 25.4608 15.2344 24.0389 15.1719C22.5389 15.1016 20.5936 15.3281 19.2733 14.4844Z" fill="url(#paint15_radial)" stroke="#EDA900" stroke-width="2.2852" stroke-miterlimit="10"/>
<path d="M29.7655 21.4453C28.3436 21.2344 27.1561 21.1406 26.0389 21.0859C24.9296 21.0391 23.8905 21.0391 22.7811 21.0859C21.6718 21.1328 20.4764 21.2344 19.0546 21.4453C17.9139 21.6172 16.828 20.9531 16.6014 19.8984C16.3202 18.5469 16.1796 17.8672 15.8983 16.5156C15.6796 15.4609 16.6014 14.3672 17.9686 14.1641C19.2499 13.9766 20.3749 13.8594 21.4218 13.7891C22.4686 13.7187 23.4374 13.6875 24.4061 13.6875C25.3749 13.6875 26.3436 13.7187 27.3905 13.7891C28.4374 13.8594 29.5624 13.9687 30.8436 14.1641C32.2108 14.3672 33.1327 15.4609 32.9139 16.5156C32.6327 17.8672 32.4921 18.5469 32.2108 19.8984C31.9999 20.9531 30.9061 21.6094 29.7655 21.4453Z" fill="url(#paint16_linear)"/>
<path d="M24.4219 22.3125C28.3526 22.3125 31.5391 21.5885 31.5391 20.6953C31.5391 19.8022 28.3526 19.0781 24.4219 19.0781C20.4912 19.0781 17.3047 19.8022 17.3047 20.6953C17.3047 21.5885 20.4912 22.3125 24.4219 22.3125Z" fill="#309996"/>
<path d="M33.0628 48.0938C33.0628 48.0938 35.9924 50.7813 36.2346 53.836C36.4768 56.8906 37.5784 61.2891 39.2893 62.875C41.0003 64.4609 41.0003 66.6641 43.3206 67.7578C45.6409 68.8516 53.094 73.0078 58.8362 72.5234C64.5784 72.0313 69.4612 72.7656 70.6799 73.0156C71.8987 73.2656 78.0159 74.9688 77.8909 77.2891C77.7659 79.6094 76.9143 79.7344 78.1331 81.3203C79.3518 82.9062 79.844 84.8594 80.0862 86.9375C80.3284 89.0156 78.5003 90.1094 79.594 92.1875C80.6878 94.2656 77.2424 96.7422 77.2424 96.7422H27.8674C27.8674 96.7422 28.4534 90.3203 26.8284 86.5859C25.8596 84.3594 21.4221 83.3438 22.3987 79.5547C23.3753 75.7656 23.3753 74.8047 23.3753 74.8047C23.3753 74.8047 17.3128 73.1328 19.8753 66.0469C22.4378 58.9609 23.6643 55.9063 23.6643 55.9063C23.6643 55.9063 29.5237 44.7969 33.0628 48.0938Z" fill="url(#paint17_linear)"/>
<path d="M55.6875 61.4296C55.6328 60.9452 55.1641 60.4218 54.6953 60.3593C54.5078 60.3359 54.3047 60.3593 54.0937 60.3749C53.8828 60.3593 53.6719 60.3281 53.4922 60.3593C53.0234 60.4218 52.5469 60.9452 52.5 61.4296C52.4922 61.4687 52.4922 61.5077 52.5 61.5468C52.5312 61.9531 52.9922 62.1093 53.3359 62.0312C53.5859 61.9765 54.6094 61.9765 54.8594 62.0312C55.2031 62.1015 55.6641 61.9531 55.6953 61.5468C55.6875 61.5077 55.6875 61.4687 55.6875 61.4296Z" fill="#4DB6AC"/>
<path d="M24.3907 19.9141C22.1954 19.9141 21.1642 21.1406 21.2032 22.0156L22.1485 42.7422C22.172 43.3203 22.5235 43.8438 23.0548 44.0781L23.922 44.4688C24.3204 44.6484 24.7813 44.6484 25.1876 44.4688L26.0548 44.0781C26.586 43.8359 26.9376 43.3203 26.961 42.7422L27.9063 22.0156C27.9376 21.1406 26.586 19.9141 24.3907 19.9141Z" fill="#006C77"/>
<path d="M19.9295 26.2656C20.117 25.7422 20.5623 25.3516 21.1092 25.2188C22.3514 24.9141 24.5311 24.5156 24.8045 25.2891C25.2967 26.6719 21.2186 27 22.4451 27.1641C23.6639 27.3281 25.2107 27.086 25.617 27.8985C26.0232 28.711 25.2107 29.3672 24.6404 29.3672C24.0701 29.3672 24.0701 29.3672 24.0701 29.3672C24.0701 29.3672 25.1248 29.9375 24.8045 30.4219C24.4764 30.9141 21.3045 30.9141 20.7342 33.1875C20.1639 35.4688 20.1639 36.3594 20.1639 36.3594C20.1639 36.3594 17.7654 32.3985 19.9295 26.2656Z" fill="url(#paint18_linear)"/>
<path d="M29.086 27.875C28.7813 26.9532 28.3751 26.0704 27.8751 25.2422C27.7032 24.9532 27.5079 24.6563 27.2422 24.4454C26.9766 24.2344 26.6251 24.1016 26.2969 24.1719C25.7657 24.2813 25.4454 24.875 25.461 25.4219C25.4766 25.9688 25.7344 26.4688 25.9922 26.9532C26.3126 27.5547 26.6329 28.1641 26.9532 28.7657C27.1485 29.1407 27.3594 29.5235 27.6954 29.7735C28.0313 30.0313 28.5313 30.1094 28.8672 29.8516C29.1016 29.6719 29.2032 29.3672 29.2422 29.0782C29.3282 28.4688 29.2032 27.8282 28.8829 27.2969" fill="#1E8279"/>
<path d="M56.617 76.4766C50.3748 78.6328 40.8592 83.6172 33.6561 94.9922C32.9686 96.0781 34.3436 97.2969 35.3279 96.4609C41.0779 91.5547 50.8514 83.3672 57.6404 78.4453C58.6717 77.6953 57.8279 76.0547 56.617 76.4766Z" fill="#4DB6AC"/>
<path d="M25.6328 82.3672C25.1328 80.6953 23.9453 79.1719 25 77.8672C27.039 75.3437 31.8828 70.6641 33.1094 66.4766C33.1094 66.4766 33.9844 75.9141 25.6328 82.3672Z" fill="#4DB6AC"/>
<path d="M35.0234 66.7969C35.0234 66.7969 37.7187 67.75 37.6953 69.1016C37.6719 70.4531 36.8516 77.1172 35.6797 79.2344C35.6875 79.2344 35.5781 69.1328 35.0234 66.7969Z" fill="#4DB6AC"/>
<path d="M50.844 96.6093C56.0705 92.125 61.094 86.2656 63.344 79.6406C63.5393 79.0781 62.7659 78.6953 62.4377 79.1953C60.0002 82.9531 55.0784 89.6406 47.5237 95.8281C47.1565 96.1328 47.3596 96.7265 47.8362 96.7265H50.5081C50.6331 96.7265 50.7502 96.6875 50.844 96.6093Z" fill="#4DB6AC"/>
<path d="M70.7033 96.2109C70.4767 88.3672 69.3205 83.375 68.3127 80.4688C68.1174 79.8984 67.258 80.0938 67.3283 80.6953C67.8049 84.8047 68.1642 90.9297 68.4455 96.2969C68.4611 96.5703 68.6877 96.7813 68.9611 96.7734L70.2033 96.75C70.4924 96.7344 70.7111 96.4922 70.7033 96.2109Z" fill="#4DB6AC"/>
<path d="M74.2578 79.7422C75.9375 81.1172 77.3672 82.8672 78.0156 84.9375C78.1797 85.4688 78.2734 86.1172 77.8984 86.5313C77.5312 86.9375 76.8594 86.9219 76.3906 86.6484C75.9219 86.375 75.6016 85.8984 75.3047 85.4453C74.3203 83.9531 73.3359 82.4531 72.3516 80.9609C71.6641 79.9141 70.0703 78.2734 70.0078 77.0391C71.5156 77.6953 72.9844 78.6953 74.2578 79.7422Z" fill="#4DB6AC"/>
<path d="M22.0078 69.4375C22.0078 70.0391 22.0469 70.6797 22.3984 71.1719C22.75 71.6641 23.5234 71.8906 23.9609 71.4844C24.25 71.2188 24.3125 70.7969 24.3516 70.4141C24.7812 66.6172 26.0312 62.0156 25.6484 58.25C23.0625 60.9453 22.0078 65.8281 22.0078 69.4375Z" fill="#4DB6AC"/>
<path d="M50.7188 57.4219H47.5937C46.8047 57.4219 46.1641 56.7812 46.1641 55.9922C46.1641 55.2031 46.8125 54.5625 47.5937 54.5625H50.7188C51.5078 54.5625 52.1484 55.2031 52.1484 55.9922C52.1484 56.7812 51.5078 57.4219 50.7188 57.4219Z" fill="#4DB6AC"/>
<path d="M60.2187 57.4219H57.0938C56.3047 57.4219 55.6641 56.7812 55.6641 55.9922C55.6641 55.2031 56.3047 54.5625 57.0938 54.5625H60.2187C61.0078 54.5625 61.6484 55.2031 61.6484 55.9922C61.6562 56.7812 61.0078 57.4219 60.2187 57.4219Z" fill="#4DB6AC"/>
<g opacity="0.2">
<path opacity="0.2" d="M25.0702 6.32813C25.7421 6.67969 26.3436 7.16406 26.8124 7.74219C27.8983 9.07031 28.5468 11.5625 27.7264 12.4687C27.1327 13.1172 26.9608 14.0469 27.2655 14.8672C27.578 15.6875 28.3202 16.2734 29.1874 16.375C29.6093 16.4219 30.0389 16.4766 30.4921 16.5469C30.4999 16.5469 30.5077 16.5469 30.5155 16.5547L30.3358 17.4297L29.953 19.2656C29.9139 19.2891 29.8749 19.3047 29.8436 19.3281C29.703 19.4141 29.0155 19.6719 27.5858 19.8516C26.453 19.9922 25.5936 20.9297 25.5389 22.0703L25.4061 25.0234C25.3827 25.6172 25.578 26.1953 25.9608 26.6484C26.7108 27.5312 27.1874 28.9219 27.2889 30.5547C27.4374 32.875 26.9218 34.5156 26.2655 36.5937C25.9686 37.5391 25.6639 38.5078 25.3905 39.6328C24.7499 42.2969 25.4764 46.0156 26.3671 49.6328C26.5624 50.4375 27.1718 51.0781 27.9686 51.3203C28.1952 51.3906 28.4218 51.4219 28.6483 51.4219C29.2264 51.4219 29.7968 51.2031 30.2343 50.8047C30.8671 50.2187 31.3046 49.9922 31.4921 49.9297C31.703 50.1328 32.7421 51.1797 33.3905 52.5078C33.4686 52.6641 33.5624 52.8047 33.6639 52.9375C33.6796 53.0938 33.703 53.25 33.7499 53.4062C33.8202 53.6562 33.8671 53.8906 33.8827 54.1016C34.1093 56.9297 35.1639 62.3359 37.6796 64.6719C38.1014 65.0703 38.3983 65.6094 38.7421 66.2344C39.3749 67.3984 40.2499 68.9922 42.3046 69.9609C42.5702 70.0859 42.9061 70.2578 43.3046 70.4531L43.5389 70.5703C43.8671 70.7344 44.2264 70.8125 44.5858 70.8125C44.8749 70.8125 45.1639 70.7578 45.4374 70.6484C46.0546 70.4063 46.5389 69.9141 46.7733 69.2969C47.6093 67.1094 47.5936 63.5938 47.4374 61.0313C47.3983 60.4063 47.1171 59.8281 46.6483 59.4141C46.4374 59.2344 46.2186 59.0313 46.0233 58.8359C45.578 58.375 44.9686 58.125 44.3436 58.125C44.2655 58.125 44.1874 58.1328 44.1014 58.1406C44.3983 57.5 44.3983 56.7422 44.0702 56.0938C43.5311 55.0391 43.1639 53.875 42.9764 52.6563C42.9296 52.3438 42.8202 52.0547 42.6639 51.7969C42.7733 51.5234 42.828 51.2266 42.828 50.9141C42.828 50.8594 42.828 50.8047 42.8202 50.75C42.8202 49.9844 42.8983 49.2187 43.0468 48.4609C43.1249 48.0391 43.0936 47.625 42.9608 47.2422C43.2811 46.9922 43.5311 46.6563 43.6874 46.2656C44.0546 45.3359 44.5624 44.4375 45.1874 43.6016C45.453 43.25 45.6014 42.8359 45.6405 42.4219C46.0468 42.3437 46.4374 42.1641 46.7577 41.8672C48.4374 40.375 50.4608 39.4609 52.6171 39.2187C52.9999 39.1797 53.3593 39.0391 53.6639 38.8359C53.9764 39.0391 54.3358 39.1719 54.7264 39.2031C56.953 39.4062 59.0389 40.3203 60.7499 41.8359C61.078 42.125 61.4608 42.3047 61.8671 42.3828C61.9061 42.7969 62.0624 43.2031 62.3202 43.5547C62.953 44.3984 63.4608 45.3047 63.8436 46.25C63.9999 46.6406 64.2499 46.9687 64.5702 47.2187C64.4374 47.5937 64.4061 48.0078 64.4843 48.4297C64.6327 49.1875 64.703 49.9609 64.7108 50.7344C64.7108 50.7891 64.703 50.8438 64.703 50.9063C64.703 51.2188 64.7577 51.5156 64.8671 51.7891C64.7108 52.0469 64.6014 52.3359 64.5546 52.6484C64.2108 54.9141 63.2421 56.9766 61.7499 58.6172C61.3983 59 61.1874 59.5 61.1405 60.0156C61.0702 60.8984 60.9374 63.2812 61.1639 66.2812C61.3905 69.2344 63.2811 72.1328 64.8358 74.0547C65.2421 74.5547 65.8358 74.8672 66.4764 74.9141C68.7264 75.0859 70.0624 75.3516 70.203 75.375C71.9452 75.7266 74.7577 76.8359 75.5077 77.5625C75.4686 77.9688 75.3905 78.2656 75.328 78.5625C75.0311 79.8281 74.8905 81.0234 76.2655 82.8125C77.0468 83.8281 77.5077 85.2031 77.7499 87.2734C77.7811 87.5703 77.6718 87.875 77.4608 88.4297C77.0702 89.4453 76.4218 91.125 77.4374 93.1875C77.3202 93.5 76.8905 94.0156 76.4061 94.4688H69.9608C69.9452 94.4688 69.9296 94.4688 69.9061 94.4688L69.1093 94.4844C69.0155 94.4688 68.9139 94.4688 68.8202 94.4688H30.3124C30.3358 92.0391 30.1405 88.4063 28.9686 85.7188C28.3905 84.3984 27.2889 83.5 26.3202 82.7188C24.6952 81.4063 24.453 81.0313 24.6639 80.2109C25.5311 76.8516 25.6952 75.4922 25.7108 74.9844C25.7186 74.8047 25.6952 74.5938 25.6639 74.4141C25.4921 73.5469 24.8671 72.8594 24.0155 72.6172C23.9999 72.6094 22.5468 72.1563 21.9061 70.8828C21.4139 69.8984 21.4686 68.5625 22.0702 66.9141C22.7889 64.9297 23.3983 63.2656 23.9061 61.8984C24.0155 61.6016 24.0702 61.2813 24.0468 60.9609L24.0389 60.8281L24.0311 60.7031C23.8749 57.4609 24.1561 53.4922 24.4061 50C24.578 47.6641 24.7343 45.4531 24.7499 43.6406C24.7577 43.2422 24.6561 42.8437 24.4608 42.4922L24.3436 39.9531C24.328 39.6953 24.2733 39.4375 24.1796 39.1953C23.8905 38.4609 23.5936 37.8203 23.3046 37.1953C22.9686 36.4687 22.6561 35.7812 22.3983 35.0547C22.2499 34.6484 22.0077 34.2969 21.6874 34.0391C21.3202 32.7344 21.0233 30.4531 21.9999 27.4453C22.3983 27.2734 22.7421 26.9922 22.9999 26.6328C23.0389 26.5781 23.078 26.5313 23.1093 26.4844L23.1561 26.4219C23.4999 25.9766 23.6796 25.4297 23.6561 24.8672L23.5311 22.0938C23.4764 20.9453 22.6014 20 21.4608 19.875C19.9686 19.7031 19.1718 19.4375 18.9608 19.3203C18.9218 19.2969 18.8827 19.2734 18.8358 19.2578L18.5702 17.9609L18.2733 16.5391C18.2811 16.5391 18.2889 16.5391 18.2968 16.5312C18.5468 16.4922 18.7811 16.4609 19.0233 16.4297C19.8983 16.3125 20.6405 15.7109 20.9296 14.875C21.2186 14.0391 21.0155 13.1094 20.3983 12.4687C20.3749 12.4453 20.3514 12.4141 20.328 12.3828C20.0077 11.9219 19.8983 11.2344 20.0311 10.5469C20.1639 9.86719 20.5155 9.28906 20.9686 8.99219C21.2186 8.82813 21.5624 8.67969 21.9296 8.51562C22.2264 8.38281 22.5546 8.23437 22.8905 8.0625C23.8827 7.58594 24.5936 7.00781 25.0702 6.32813ZM24.4296 3.61719C23.9921 3.61719 23.578 3.90625 23.453 4.34375C23.4061 4.52344 23.3358 4.69531 23.2421 4.85156C22.9296 5.35937 22.3749 5.72656 21.8514 6C21.1483 6.36719 20.3905 6.61719 19.7264 7.04688C17.6483 8.39844 16.9999 11.6719 18.4374 13.7344C18.5311 13.8672 18.6327 13.9922 18.7499 14.1094C18.4999 14.1406 18.2499 14.1719 17.9843 14.2109C16.6171 14.4141 15.6952 15.5078 15.9139 16.5625C16.1952 17.9141 16.3358 18.5938 16.6171 19.9453C16.7577 20.6094 17.2343 21.1172 17.8593 21.3594C18.5077 21.7187 19.703 22.0156 21.2186 22.1875L21.3436 24.9609C21.2655 25.0625 21.1796 25.1641 21.1093 25.2734C20.5702 25.4062 20.1249 25.7891 19.9374 26.3125C17.7733 32.4453 20.1639 36.4141 20.1639 36.4141C20.1639 36.4141 20.1639 36.2187 20.2186 35.8203C20.7421 37.2891 21.4218 38.5078 22.0311 40.0469L22.1561 42.7969C22.1718 43.0937 22.2655 43.3672 22.4296 43.6016C22.3827 48.0625 21.4374 55.2422 21.7108 60.8047C21.7186 60.8906 21.7186 60.9766 21.7264 61.0625C21.2108 62.4375 20.6014 64.1016 19.8827 66.1016C17.3436 73.1094 23.2577 74.8203 23.3749 74.8516C23.3749 74.8594 23.3749 74.8672 23.3827 74.875C23.3749 75.0312 23.3046 76.1328 22.4061 79.6016C21.4296 83.3906 25.8671 84.4063 26.8358 86.6328C28.4608 90.3672 27.8749 96.7891 27.8749 96.7891H68.8514C68.8905 96.7969 68.9296 96.8125 68.9765 96.8125C68.9765 96.8125 68.9765 96.8125 68.9843 96.8125L69.9921 96.7891H77.2733C77.2733 96.7891 80.7265 94.3047 79.6249 92.2344C78.5233 90.1563 80.3593 89.0625 80.1171 86.9844C79.8749 84.9062 79.3827 82.9531 78.164 81.3672C76.9452 79.7813 77.7968 79.6563 77.9218 77.3359C78.0468 75.0156 71.9296 73.3047 70.7108 73.0625C70.1249 72.9453 68.6796 72.7109 66.703 72.5625C65.5624 71.1563 63.7343 68.5469 63.5468 66.0938C63.328 63.2344 63.4608 60.9844 63.5233 60.1797C65.2811 58.25 66.4921 55.7812 66.914 52.9844L77.5155 52.3906C77.8046 52.375 77.8124 52.0625 77.5233 52.0312L67.0858 50.9141C67.0858 50.8672 67.0936 50.8203 67.0936 50.7734C67.0936 49.8125 66.9999 48.875 66.828 47.9766L77.8124 45.3281C78.0936 45.2578 78.0468 44.8906 77.7655 44.8906C77.7577 44.8906 77.7577 44.8906 77.7499 44.8906L66.0624 45.3672C65.5936 44.1953 64.9764 43.1172 64.2421 42.1328L72.4296 33.2109C72.5858 33.0391 72.4608 32.8281 72.289 32.8281C72.2421 32.8281 72.1874 32.8437 72.1405 32.8828L62.3514 40.0547C60.3202 38.2656 57.7811 37.1016 54.9843 36.8437L53.9061 25.9688C53.8905 25.8203 53.7889 25.75 53.6874 25.75C53.5858 25.75 53.4843 25.8203 53.4686 25.9688L52.3749 36.8828C49.6561 37.1797 47.1874 38.3516 45.2108 40.1094L35.3827 32.9062C35.328 32.8672 35.2811 32.8516 35.2343 32.8516C35.0624 32.8516 34.9374 33.0625 35.0936 33.2344L43.3202 42.1953C42.6014 43.1641 41.9843 44.2344 41.5311 45.3906L29.7733 44.9062C29.7655 44.9062 29.7655 44.9062 29.7577 44.9062C29.4764 44.9062 29.4296 45.2734 29.7108 45.3437L40.7655 48.0078C40.5936 48.9062 40.4999 49.8359 40.4999 50.7891C40.4999 50.8359 40.5077 50.875 40.5077 50.9219L35.5155 51.4531C34.5702 49.5469 33.0702 48.1562 33.0702 48.1562C32.6171 47.7344 32.1171 47.5469 31.6014 47.5469C30.6561 47.5469 29.6483 48.1641 28.6718 49.0625C27.7655 45.3594 27.2108 42.2031 27.703 40.1719C28.5546 36.6328 29.8983 34.3125 29.6561 30.3984C29.5233 28.2187 28.8514 26.3828 27.7733 25.1172L27.9061 22.1641C29.3436 21.9766 30.4686 21.6875 31.0624 21.3281C31.6483 21.0703 32.0936 20.5859 32.2264 19.9531C32.5077 18.6016 32.6483 17.9219 32.9296 16.5703C33.1483 15.5156 32.2264 14.4219 30.8593 14.2188C30.3749 14.1484 29.9218 14.0937 29.4843 14.0391C31.3593 11.9766 30.2343 8.20313 28.6483 6.25781C27.6405 5.02344 26.2499 4.10937 24.7264 3.65625C24.6171 3.63281 24.5233 3.61719 24.4296 3.61719ZM44.6014 68.4531C44.0936 68.1953 43.6561 67.9766 43.328 67.8203C41.0077 66.7188 41.0077 64.5234 39.2968 62.9375C37.5858 61.3516 36.4843 56.9531 36.2421 53.8984C36.2108 53.5 36.1327 53.1172 36.0233 52.7344L40.6874 52.9922C40.9139 54.4688 41.3593 55.8594 42.0077 57.1328C41.9374 57.1172 41.8671 57.1016 41.7889 57.1016C41.3671 57.1016 40.9764 57.4219 40.9764 57.8906C40.9686 58.6328 41.1952 59.5703 42.1561 60.2422C42.5468 60.5156 42.8827 60.7344 43.1718 60.9063C43.3124 60.9922 43.453 61.0313 43.5936 61.0313C43.953 61.0313 44.2733 60.7891 44.3749 60.4531C44.6171 60.7031 44.8671 60.9297 45.1249 61.1563C45.2264 63.0625 45.3202 66.5625 44.6014 68.4531Z" fill="#424242"/>
</g>
<defs>
<linearGradient id="paint0_linear" x1="53.6589" y1="25.9115" x2="53.6589" y2="40.3698" gradientUnits="userSpaceOnUse">
<stop stop-color="#80CBC4"/>
<stop offset="0.2437" stop-color="#7DC8C1"/>
<stop offset="0.423" stop-color="#74BFB8"/>
<stop offset="0.5817" stop-color="#66AFA8"/>
<stop offset="0.7284" stop-color="#519892"/>
<stop offset="0.8656" stop-color="#367B75"/>
<stop offset="0.9964" stop-color="#155852"/>
<stop offset="1" stop-color="#145751"/>
</linearGradient>
<linearGradient id="paint1_linear" x1="35.0216" y1="38.1149" x2="46.5895" y2="38.1149" gradientUnits="userSpaceOnUse">
<stop stop-color="#80CBC4"/>
<stop offset="0.1494" stop-color="#79C4BD"/>
<stop offset="0.3746" stop-color="#66AFA8"/>
<stop offset="0.6476" stop-color="#468D87"/>
<stop offset="0.9557" stop-color="#1B5E58"/>
<stop offset="1" stop-color="#145751"/>
</linearGradient>
<linearGradient id="paint2_linear" x1="29.5212" y1="46.6832" x2="43.7563" y2="46.6832" gradientUnits="userSpaceOnUse">
<stop stop-color="#80CBC4"/>
<stop offset="0.1618" stop-color="#7BC6BF"/>
<stop offset="0.3574" stop-color="#6DB7B0"/>
<stop offset="0.5704" stop-color="#579F98"/>
<stop offset="0.7942" stop-color="#377D77"/>
<stop offset="1" stop-color="#145751"/>
</linearGradient>
<linearGradient id="paint3_linear" x1="29.7865" y1="51.8122" x2="44.0597" y2="51.8122" gradientUnits="userSpaceOnUse">
<stop stop-color="#80CBC4"/>
<stop offset="0.0908" stop-color="#72BCB5"/>
<stop offset="0.3764" stop-color="#49908A"/>
<stop offset="0.6333" stop-color="#2C716B"/>
<stop offset="0.8499" stop-color="#1A5E58"/>
<stop offset="1" stop-color="#145751"/>
</linearGradient>
<linearGradient id="paint4_linear" x1="60.9071" y1="38.1149" x2="72.475" y2="38.1149" gradientUnits="userSpaceOnUse">
<stop stop-color="#145751"/>
<stop offset="0.1448" stop-color="#2C706A"/>
<stop offset="0.4031" stop-color="#509791"/>
<stop offset="0.6404" stop-color="#6AB4AD"/>
<stop offset="0.8471" stop-color="#7AC5BE"/>
<stop offset="1" stop-color="#80CBC4"/>
</linearGradient>
<linearGradient id="paint5_linear" x1="63.7407" y1="46.6832" x2="77.9757" y2="46.6832" gradientUnits="userSpaceOnUse">
<stop stop-color="#145751"/>
<stop offset="0.121" stop-color="#30766F"/>
<stop offset="0.2721" stop-color="#4D948E"/>
<stop offset="0.4307" stop-color="#64ACA6"/>
<stop offset="0.5977" stop-color="#74BEB7"/>
<stop offset="0.7789" stop-color="#7DC8C1"/>
<stop offset="1" stop-color="#80CBC4"/>
</linearGradient>
<linearGradient id="paint6_linear" x1="63.4374" y1="51.8122" x2="77.7106" y2="51.8122" gradientUnits="userSpaceOnUse">
<stop stop-color="#145751"/>
<stop offset="0.1501" stop-color="#1A5E58"/>
<stop offset="0.3667" stop-color="#2C716B"/>
<stop offset="0.6236" stop-color="#49908A"/>
<stop offset="0.9092" stop-color="#72BCB5"/>
<stop offset="1" stop-color="#80CBC4"/>
</linearGradient>
<linearGradient id="paint7_linear" x1="55.1158" y1="59.9154" x2="55.1158" y2="76.0048" gradientUnits="userSpaceOnUse">
<stop stop-color="#145751"/>
<stop offset="0.1501" stop-color="#1A5E58"/>
<stop offset="0.3667" stop-color="#2C716B"/>
<stop offset="0.6236" stop-color="#49908A"/>
<stop offset="0.9092" stop-color="#72BCB5"/>
<stop offset="1" stop-color="#80CBC4"/>
</linearGradient>
<linearGradient id="paint8_linear" x1="53.7826" y1="36.8659" x2="53.7826" y2="56.7159" gradientUnits="userSpaceOnUse">
<stop stop-color="#B2DFDB"/>
<stop offset="0.3884" stop-color="#8ED0CA"/>
<stop offset="1" stop-color="#4DB6AC"/>
</linearGradient>
<linearGradient id="paint9_linear" x1="54.1667" y1="62.4461" x2="54.1667" y2="74.7437" gradientUnits="userSpaceOnUse">
<stop stop-color="#1E8279"/>
<stop offset="0.1681" stop-color="#25877E"/>
<stop offset="0.4105" stop-color="#38958D"/>
<stop offset="0.6981" stop-color="#57ADA5"/>
<stop offset="1" stop-color="#80CBC4"/>
</linearGradient>
<linearGradient id="paint10_linear" x1="42.6818" y1="57.1742" x2="42.6818" y2="60.8856" gradientUnits="userSpaceOnUse">
<stop offset="1.92426e-05" stop-color="#BAE8E3"/>
<stop offset="0.2367" stop-color="#B4E5E0"/>
<stop offset="0.5546" stop-color="#A3DCD7"/>
<stop offset="0.9173" stop-color="#87CEC8"/>
<stop offset="0.9951" stop-color="#80CBC4"/>
</linearGradient>
<linearGradient id="paint11_linear" x1="60.0972" y1="57.1742" x2="60.0972" y2="60.8856" gradientUnits="userSpaceOnUse">
<stop offset="1.92426e-05" stop-color="#BAE8E3"/>
<stop offset="0.2367" stop-color="#B4E5E0"/>
<stop offset="0.5546" stop-color="#A3DCD7"/>
<stop offset="0.9173" stop-color="#87CEC8"/>
<stop offset="0.9951" stop-color="#80CBC4"/>
</linearGradient>
<linearGradient id="paint12_linear" x1="54.1168" y1="47.016" x2="54.1168" y2="68.0333" gradientUnits="userSpaceOnUse">
<stop offset="1.92426e-05" stop-color="#BAE8E3"/>
<stop offset="0.2367" stop-color="#B4E5E0"/>
<stop offset="0.5546" stop-color="#A3DCD7"/>
<stop offset="0.9173" stop-color="#87CEC8"/>
<stop offset="0.9951" stop-color="#80CBC4"/>
</linearGradient>
<radialGradient id="paint13_radial" cx="0" cy="0" r="1" gradientUnits="userSpaceOnUse" gradientTransform="translate(53.5639 46.2719) scale(20.0349)">
<stop stop-color="#80CBC4"/>
<stop offset="0.2625" stop-color="#5FBEB5"/>
<stop offset="0.5654" stop-color="#40B1A6"/>
<stop offset="0.8221" stop-color="#2DA99D"/>
<stop offset="1" stop-color="#26A69A"/>
</radialGradient>
<linearGradient id="paint14_linear" x1="25.6368" y1="25.4528" x2="25.6368" y2="75.1593" gradientUnits="userSpaceOnUse">
<stop stop-color="#1E8279"/>
<stop offset="0.1681" stop-color="#25877E"/>
<stop offset="0.4105" stop-color="#38958D"/>
<stop offset="0.6981" stop-color="#57ADA5"/>
<stop offset="1" stop-color="#80CBC4"/>
</linearGradient>
<radialGradient id="paint15_radial" cx="0" cy="0" r="1" gradientUnits="userSpaceOnUse" gradientTransform="translate(24.059 9.39361) scale(8.98688)">
<stop stop-color="#FFD54F"/>
<stop offset="0.1749" stop-color="#FFD245"/>
<stop offset="0.4725" stop-color="#FFCB2A"/>
<stop offset="0.7855" stop-color="#FFC107"/>
<stop offset="1" stop-color="#FFC107"/>
</radialGradient>
<linearGradient id="paint16_linear" x1="15.8784" y1="17.5766" x2="32.9514" y2="17.5766" gradientUnits="userSpaceOnUse">
<stop stop-color="#B2DFDB"/>
<stop offset="0.3884" stop-color="#8ED0CA"/>
<stop offset="1" stop-color="#4DB6AC"/>
</linearGradient>
<linearGradient id="paint17_linear" x1="49.6775" y1="69.2451" x2="49.6775" y2="97.2124" gradientUnits="userSpaceOnUse">
<stop stop-color="#B2DFDB"/>
<stop offset="1" stop-color="#80CBC4"/>
</linearGradient>
<linearGradient id="paint18_linear" x1="19.0219" y1="30.6038" x2="25.7216" y2="30.6038" gradientUnits="userSpaceOnUse">
<stop offset="1.92426e-05" stop-color="#BAE8E3"/>
<stop offset="0.2367" stop-color="#B4E5E0"/>
<stop offset="0.5546" stop-color="#A3DCD7"/>
<stop offset="0.9173" stop-color="#87CEC8"/>
<stop offset="0.9951" stop-color="#80CBC4"/>
</linearGradient>
</defs>
</svg>
