<svg width="29" height="30" viewBox="0 0 29 30" fill="none" xmlns="http://www.w3.org/2000/svg">
<path d="M26.229 15.8166V15V14.1727L28.2772 12.3675C28.6547 12.0324 28.9025 11.5735 28.9767 11.0722C29.0509 10.5708 28.9467 10.0591 28.6826 9.62765L26.165 5.32977C25.9779 5.00341 25.7089 4.73234 25.385 4.54375C25.0611 4.35516 24.6936 4.25568 24.3195 4.2553C24.0876 4.25351 23.857 4.2898 23.6367 4.36274L21.0445 5.24381C20.5969 4.94426 20.13 4.67504 19.647 4.43796L19.1029 1.73029C19.0054 1.23561 18.7382 0.791249 18.3481 0.474991C17.9581 0.158733 17.47 -0.00926858 16.9694 0.000394794H11.9769C11.4762 -0.00926858 10.9882 0.158733 10.5981 0.474991C10.2081 0.791249 9.94087 1.23561 9.84331 1.73029L9.29926 4.43796C8.81274 4.67499 8.34233 4.94419 7.89112 5.24381L5.35219 4.31977C5.12955 4.26134 4.89899 4.23957 4.66945 4.2553C4.29531 4.25568 3.92784 4.35516 3.60392 4.54375C3.28 4.73234 3.011 5.00341 2.82393 5.32977L0.306342 9.62765C0.057343 10.0585 -0.0351841 10.5631 0.0446081 11.0552C0.1244 11.5472 0.371547 11.9959 0.74372 12.3246L2.75993 14.1834V15.8273L0.74372 17.6325C0.361034 17.9634 0.107128 18.4202 0.027059 18.9218C-0.0530098 19.4233 0.045938 19.9373 0.306342 20.3724L2.82393 24.6702C3.011 24.9966 3.28 25.2677 3.60392 25.4562C3.92784 25.6448 4.29531 25.7443 4.66945 25.7447C4.90132 25.7465 5.13192 25.7102 5.35219 25.6373L7.94445 24.7562C8.39201 25.0557 8.85887 25.325 9.34193 25.562L9.88599 28.2697C9.98354 28.7644 10.2507 29.2088 10.6408 29.525C11.0308 29.8413 11.5189 30.0093 12.0195 29.9996H17.0547C17.5554 30.0093 18.0434 29.8413 18.4335 29.525C18.8235 29.2088 19.0907 28.7644 19.1883 28.2697L19.7323 25.562C20.2188 25.325 20.6893 25.0558 21.1405 24.7562L23.7221 25.6373C23.9423 25.7102 24.1729 25.7465 24.4048 25.7447C24.7789 25.7443 25.1464 25.6448 25.4703 25.4562C25.7943 25.2677 26.0632 24.9966 26.2503 24.6702L28.6826 20.3724C28.9316 19.9415 29.0241 19.4369 28.9443 18.9448C28.8645 18.4528 28.6174 18.0041 28.2452 17.6754L26.229 15.8166ZM24.3195 23.5958L20.6604 22.3494C19.8039 23.0801 18.8249 23.6514 17.7695 24.0363L17.012 27.8936H11.9769L11.2195 24.0793C10.1723 23.6834 9.19868 23.1132 8.33916 22.3924L4.66945 23.5958L2.15186 19.2979L5.05349 16.7192C4.85624 15.6069 4.85624 14.4683 5.05349 13.3561L2.15186 10.7021L4.66945 6.40424L8.32849 7.65062C9.18504 6.91987 10.164 6.34864 11.2195 5.96371L11.9769 2.10636H17.012L17.7695 5.92073C18.8166 6.31659 19.7902 6.88683 20.6497 7.60764L24.3195 6.40424L26.837 10.7021L23.9354 13.2808C24.1327 14.3931 24.1327 15.5317 23.9354 16.6439L26.837 19.2979L24.3195 23.5958Z" fill="white"/>
<path d="M14.4998 20.9997C13.3132 20.9997 12.1532 20.6478 11.1665 19.9885C10.1798 19.3293 9.41083 18.3922 8.95671 17.2959C8.5026 16.1996 8.38378 14.9932 8.61529 13.8293C8.84679 12.6655 9.41822 11.5964 10.2573 10.7573C11.0964 9.91822 12.1655 9.34679 13.3293 9.11529C14.4932 8.88378 15.6996 9.0026 16.7959 9.45671C17.8922 9.91083 18.8293 10.6798 19.4885 11.6665C20.1478 12.6532 20.4997 13.8132 20.4997 14.9998C20.5077 15.79 20.358 16.5738 20.0593 17.3053C19.7606 18.0369 19.319 18.7015 18.7603 19.2603C18.2015 19.819 17.5369 20.2606 16.8053 20.5593C16.0738 20.858 15.29 21.0077 14.4998 20.9997V20.9997ZM14.4998 11C13.9712 10.9876 13.4456 11.0827 12.9547 11.2793C12.4638 11.476 12.018 11.7702 11.6441 12.1441C11.2702 12.518 10.976 12.9638 10.7793 13.4547C10.5827 13.9456 10.4876 14.4712 10.5 14.9998C10.4876 15.5285 10.5827 16.0541 10.7793 16.545C10.976 17.0358 11.2702 17.4817 11.6441 17.8556C12.018 18.2295 12.4638 18.5237 12.9547 18.7204C13.4456 18.917 13.9712 19.0121 14.4998 18.9997C15.0285 19.0121 15.5541 18.917 16.045 18.7204C16.5358 18.5237 16.9817 18.2295 17.3556 17.8556C17.7295 17.4817 18.0237 17.0358 18.2204 16.545C18.417 16.0541 18.5121 15.5285 18.4997 14.9998C18.5121 14.4712 18.417 13.9456 18.2204 13.4547C18.0237 12.9638 17.7295 12.518 17.3556 12.1441C16.9817 11.7702 16.5358 11.476 16.045 11.2793C15.5541 11.0827 15.0285 10.9876 14.4998 11Z" fill="white"/>
</svg>
